<svg width="42" height="47" viewBox="0 0 42 47" fill="none" xmlns="http://www.w3.org/2000/svg">
<g clip-path="url(#clip0_458_10)">
<path d="M21.9857 10.9013H10.9929V7.23697H21.9857V10.9013ZM10.9929 14.5655H7.32857V18.2298H10.9929V14.5655ZM14.6571 18.2298H18.3214V14.5655H14.6571V18.2298ZM10.9929 21.8941H7.32857V25.5584H10.9929V21.8941ZM14.6571 25.5584H18.3214V21.8941H14.6571V25.5584ZM10.9929 29.2227H7.32857V32.887H10.9929V29.2227ZM14.6571 32.887H18.3214V29.2227H14.6571V32.887ZM7.32857 40.2155H10.9929V36.5513H7.32857V40.2155ZM14.6571 40.2155H18.3214V36.5513H14.6571V40.2155ZM25.65 14.5655H21.9857V18.2298H25.65V14.5655ZM25.65 21.8941H21.9857V25.5584H25.65V21.8941ZM41.498 46.9029H37.8338C37.8338 43.2157 34.8336 40.2155 31.1464 40.2155C27.4592 40.2155 24.4591 43.2157 24.4591 46.9029H20.7948C20.7948 43.0471 22.9137 39.6778 26.0476 37.897C25.0023 36.7042 24.3675 35.1442 24.3675 33.4366C24.3675 29.699 27.4089 26.6577 31.1464 26.6577C34.884 26.6577 37.9254 29.699 37.9254 33.4366C37.9254 35.1433 37.2896 36.7033 36.2453 37.897C39.3792 39.6787 41.498 43.048 41.498 46.9029ZM31.1464 36.5513C32.8641 36.5513 34.2611 35.1543 34.2611 33.4366C34.2611 31.719 32.8641 30.322 31.1464 30.322C29.4288 30.322 28.0318 31.719 28.0318 33.4366C28.0318 35.1543 29.4288 36.5513 31.1464 36.5513ZM3.66429 10.9013H7.32857V3.66429H25.65V10.9013H29.3143V23.1546C29.9097 23.0493 30.5217 22.9934 31.1464 22.9934C31.7712 22.9934 32.3831 23.0493 32.9786 23.1546V7.23697H29.3143V0H3.66429V7.23697H0V46.9029H17.1305C17.1305 45.635 17.3009 44.4075 17.6179 43.2386H3.66429V10.9013Z" fill="white"/>
</g>
<defs>
<clipPath id="clip0_458_10">
<rect width="41.498" height="46.9029" fill="white"/>
</clipPath>
</defs>
</svg>
