<svg width="50" height="35" viewBox="0 0 50 35" fill="none" xmlns="http://www.w3.org/2000/svg">
<path d="M49.7792 31.1102C49.4955 31.8051 49.3105 32.5658 48.9034 33.1785C48.1016 34.3914 46.868 34.926 45.4289 34.9959C45.3302 35 45.2356 34.9959 45.137 34.9959C31.646 34.9959 18.1509 34.9959 4.65999 34.9959C3.12627 34.9959 1.84749 34.4737 0.897654 33.236C0.280877 32.4424 0.00949589 31.5214 0.00949589 30.5263C0.00127221 21.8421 -0.00695148 13.162 0.00949589 4.4778C0.0177196 1.85444 1.93795 0.00822368 4.60653 0C10.1945 0 15.7825 0 21.3705 0C29.2899 0 37.2093 0 45.1329 0C47.0325 0 48.4758 0.789474 49.3352 2.51234C49.549 2.93997 49.6353 3.42928 49.7792 3.88569V31.1061V31.1102ZM44.7258 3.0551C44.7011 3.0222 44.6805 2.98931 44.6559 2.96053H5.07117C5.13285 3.04276 5.16163 3.08388 5.19453 3.11678C10.7085 8.60197 16.2143 14.0913 21.7447 19.5559C22.2011 20.0082 22.7973 20.3947 23.4018 20.6168C25.2356 21.2952 26.8269 20.7936 28.188 19.4367C33.5827 14.0666 38.9815 8.69655 44.3845 3.33059C44.4873 3.2278 44.6148 3.14967 44.7299 3.05921L44.7258 3.0551ZM5.322 32.0436H44.4667C40.4495 27.9441 36.35 23.7623 32.1888 19.5189C31.4815 20.2426 30.8278 20.9128 30.1699 21.5748C28.8294 22.9276 27.2176 23.713 25.3055 23.8117C23.0769 23.9268 21.1855 23.1497 19.6148 21.5748C18.9528 20.9128 18.3031 20.2385 17.5958 19.5189C13.4388 23.7623 9.33926 27.9441 5.322 32.0395V32.0436ZM2.95357 4.97944V30.0411C7.14765 25.7689 11.2554 21.5831 15.2727 17.4918C11.2472 13.4046 7.13943 9.23108 2.95357 4.97944ZM46.8475 4.95888C42.6329 9.23931 38.5169 13.4252 34.5778 17.426C38.6115 21.5337 42.7151 25.7196 46.8475 29.9342V4.95888Z" fill="white"/>
</svg>
