<svg width="27" height="21" viewBox="0 0 27 21" fill="none" xmlns="http://www.w3.org/2000/svg">
<path d="M5.22478 2.30698C5.22478 1.03287 4.20867 3.81362e-07 2.95524 2.86731e-07C1.70182 1.921e-07 0.685715 1.03287 0.685715 2.30698C0.685715 3.58109 1.70182 4.61396 2.95524 4.61396C4.20867 4.61396 5.22478 3.58109 5.22478 2.30698Z" fill="white"/>
<path d="M27 2.30698C27 1.03287 25.9839 2.02535e-06 24.7305 1.93071e-06C23.477 1.83608e-06 22.4609 1.03287 22.4609 2.30698C22.4609 3.58109 23.477 4.61396 24.7305 4.61396C25.9839 4.61396 27 3.58109 27 2.30698Z" fill="white"/>
<path d="M21.4304 10.662C21.4304 9.38787 20.4143 8.355 19.1609 8.355C17.9075 8.355 16.8914 9.38787 16.8914 10.662C16.8914 11.9361 17.9075 12.969 19.1609 12.969C20.4143 12.969 21.4304 11.9361 21.4304 10.662Z" fill="white"/>
<path d="M10.8434 10.662C10.8434 9.38787 9.82729 8.355 8.57386 8.355C7.32044 8.355 6.30433 9.38787 6.30433 10.662C6.30433 11.9361 7.32044 12.969 8.57386 12.969C9.82729 12.969 10.8434 11.9361 10.8434 10.662Z" fill="white"/>
<path d="M16.1185 18.3561C16.1185 17.082 15.1024 16.0491 13.849 16.0491C12.5956 16.0491 11.5795 17.082 11.5795 18.3561C11.5795 19.6302 12.5956 20.663 13.849 20.663C15.1024 20.663 16.1185 19.6302 16.1185 18.3561Z" fill="white"/>
</svg>
