<svg width="39" height="39" viewBox="0 0 39 39" fill="none" xmlns="http://www.w3.org/2000/svg">
<g clip-path="url(#clip0_279_12)">
<path d="M8.30588 0C9.55307 0.245063 10.4458 1.02839 11.2991 1.89924C12.8045 3.44401 14.3624 4.94064 15.8328 6.52042C17.2113 8.00393 17.2069 10.0082 15.8459 11.518C14.9051 12.5638 13.8811 13.5353 12.8789 14.5243C12.6776 14.7256 12.6295 14.8657 12.7564 15.1326C13.7585 17.2332 15.2114 19.0055 16.7824 20.6903C18.3885 22.4145 20.1564 23.9593 22.1432 25.2283C22.6858 25.5741 23.2722 25.8585 23.828 26.1823C24.0162 26.2917 24.1299 26.2611 24.2831 26.1079C25.1277 25.2458 25.9592 24.3706 26.8475 23.5567C27.3245 23.1147 27.8584 22.6814 28.4448 22.4232C29.9589 21.7625 31.3418 22.13 32.5015 23.2503C34.1775 24.8739 35.8054 26.5543 37.4684 28.191C39.1925 29.8845 39.3413 32.1295 37.7353 33.8581C36.5537 35.1315 35.3503 36.3918 34.0637 37.5559C32.6853 38.8031 30.9698 39.1094 29.1581 38.965C26.3136 38.7374 23.7098 37.7309 21.1892 36.475C17.4476 34.6107 14.0517 32.2433 11.0628 29.3244C6.57293 24.9351 2.95388 19.9551 0.892725 13.9511C0.315077 12.275 -0.0437647 10.5552 -3.51551e-06 8.76975C0.0437577 7.08932 0.586397 5.61019 1.76795 4.40238C2.79634 3.34773 3.83786 2.30622 4.88812 1.27345C5.56205 0.612657 6.38038 0.192549 7.30812 0H8.29712L8.30588 0ZM29.832 37.0395C31.0223 37.0658 32.1164 36.7638 32.9785 35.9323C34.1162 34.8296 35.2234 33.6918 36.2956 32.5233C37.0876 31.6612 37.0833 30.6985 36.2737 29.867C34.5582 28.1035 32.8122 26.3661 31.053 24.6419C30.3834 23.9855 29.5301 23.9636 28.7642 24.5107C28.5586 24.6551 28.3748 24.8345 28.1954 25.0139C27.2501 25.9548 26.3136 26.9 25.364 27.8365C24.7338 28.4623 24.0643 28.5673 23.2853 28.1647C22.7208 27.8759 22.1519 27.5914 21.6137 27.2632C19.2506 25.8322 17.1763 24.0512 15.3033 22.0338C13.5266 20.1214 11.9074 18.0953 10.8265 15.6884C10.3627 14.6556 10.4721 14.0955 11.2904 13.3078C12.2488 12.38 13.2115 11.4611 14.1349 10.4983C15.102 9.48743 15.0845 8.63409 14.1436 7.59695C14.1086 7.55756 14.078 7.52255 14.0386 7.48317C12.4588 5.90339 10.8834 4.31923 9.29488 2.7482C9.05419 2.51189 8.77412 2.28871 8.46779 2.15305C7.56631 1.74607 6.84425 2.1443 6.20971 2.76571C5.2601 3.69782 4.29297 4.62118 3.39149 5.60144C2.95388 6.07843 2.56003 6.63858 2.31059 7.23373C1.78108 8.49843 1.92549 9.82877 2.18806 11.1285C2.69131 13.6097 3.64531 15.9335 4.88812 18.1259C9.32989 25.9548 15.544 31.8757 23.8192 35.5385C25.7316 36.3875 27.7227 36.9695 29.832 37.0439V37.0395Z" fill="white"/>
</g>
<defs>
<clipPath id="clip0_279_12">
<rect width="38.8556" height="39" fill="white"/>
</clipPath>
</defs>
</svg>
